<svg width="358" height="139" viewBox="0 0 358 139" fill="none" xmlns="http://www.w3.org/2000/svg">
<path d="M19.008 47.904V51H0V47.904H19.008ZM37.9924 47.904V51H18.9844V47.904H37.9924ZM56.9767 47.904V51H37.9688V47.904H56.9767ZM75.9611 47.904V51H56.9531V47.904H75.9611ZM119.714 47.904V51H75.9375V47.904H92.2095V10.392H77.9535V0.671996H117.698V10.392H103.442V47.904H119.714ZM174.606 47.904V51H157.182V31.2H137.166V51H119.742V47.904H125.934V0.671996H137.166V21.696H157.182V0.671996H168.414V47.904H174.606ZM180.778 47.904V0.671996H199.858C207.682 0.671996 213.25 1.992 216.562 4.632C219.922 7.272 221.602 11.52 221.602 17.376C221.602 25.44 218.41 30.648 212.026 33L222.538 47.904H229.306V51H210.946L199.786 34.944H192.01V51H173.794V47.904H180.778ZM200.218 25.224C204.058 25.224 206.674 24.6 208.066 23.352C209.458 22.104 210.154 20.136 210.154 17.448C210.154 14.712 209.434 12.84 207.994 11.832C206.554 10.824 204.034 10.32 200.434 10.32H192.01V25.224H200.218ZM250.514 47.904V51H226.898V47.904H233.09V0.671996H244.322V47.904H250.514ZM294.587 47.904V51H250.523V47.904H256.715V0.671996H291.275V10.536H267.947V21.408H290.123V31.272H267.947V47.904H294.587ZM338.385 47.904V51H294.609V47.904H310.881V10.392H296.625V0.671996H336.369V10.392H322.113V47.904H338.385ZM357.422 47.904V51H338.414V47.904H357.422ZM45.936 135.904V139H0V135.904H9.792C7.152 134.56 4.752 132.832 2.592 130.72L9.288 122.512C14.712 127.264 19.728 129.64 24.336 129.64C26.4 129.64 28.008 129.208 29.16 128.344C30.36 127.432 30.96 126.232 30.96 124.744C30.96 123.208 30.336 122.008 29.088 121.144C27.84 120.232 25.368 119.32 21.672 118.408C15.816 117.016 11.52 115.216 8.784 113.008C6.096 110.752 4.752 107.248 4.752 102.496C4.752 97.696 6.456 94 9.864 91.408C13.32 88.816 17.616 87.52 22.752 87.52C26.112 87.52 29.472 88.096 32.832 89.248C36.192 90.4 39.12 92.032 41.616 94.144L35.928 102.352C31.56 99.04 27.048 97.384 22.392 97.384C20.52 97.384 19.032 97.84 17.928 98.752C16.872 99.616 16.344 100.792 16.344 102.28C16.344 103.72 16.992 104.872 18.288 105.736C19.632 106.6 22.68 107.632 27.432 108.832C32.232 109.984 35.952 111.736 38.592 114.088C41.232 116.44 42.552 119.704 42.552 123.88C42.552 129.064 40.608 133.072 36.72 135.904H45.936ZM89.6901 135.904V139H45.9141V135.904H62.1861V98.392H47.9301V88.672H87.6741V98.392H73.4181V135.904H89.6901ZM149.191 135.904V139H89.7188V135.904H105.775C101.839 133.648 98.7188 130.552 96.4148 126.616C94.1588 122.68 93.0308 118.312 93.0308 113.512C93.0308 106.12 95.5748 99.952 100.663 95.008C105.751 90.016 112.015 87.52 119.455 87.52C126.895 87.52 133.159 90.016 138.247 95.008C143.335 99.952 145.879 106.12 145.879 113.512C145.879 118.312 144.727 122.68 142.423 126.616C140.119 130.552 137.023 133.648 133.135 135.904H149.191ZM134.431 113.584C134.431 109.072 132.991 105.232 130.111 102.064C127.231 98.896 123.679 97.312 119.455 97.312C115.279 97.312 111.751 98.896 108.871 102.064C105.991 105.232 104.551 109.072 104.551 113.584C104.551 118.048 105.991 121.864 108.871 125.032C111.751 128.152 115.279 129.712 119.455 129.712C123.679 129.712 127.231 128.152 130.111 125.032C132.991 121.864 134.431 118.048 134.431 113.584ZM155.395 135.904V88.672H174.475C182.299 88.672 187.867 89.992 191.179 92.632C194.539 95.272 196.219 99.52 196.219 105.376C196.219 113.44 193.027 118.648 186.643 121L197.155 135.904H203.923V139H185.563L174.403 122.944H166.627V139H148.411V135.904H155.395ZM174.835 113.224C178.675 113.224 181.291 112.6 182.683 111.352C184.075 110.104 184.771 108.136 184.771 105.448C184.771 102.712 184.051 100.84 182.611 99.832C181.171 98.824 178.651 98.32 175.051 98.32H166.627V113.224H174.835ZM207.708 135.904V88.672H243.996V98.68H218.94V109.048H241.476V118.624H218.94V129.064H244.788V135.904H251.772V139H200.724V135.904H207.708Z" fill="black"/>
</svg>
